<svg xmlns="http://www.w3.org/2000/svg" xmlns:xlink="http://www.w3.org/1999/xlink" width="22" height="22" viewBox="0 0 22 22" fill="none"><g opacity="1" transform="translate(0 0)  rotate(0 11 11)"><g opacity="1" transform="translate(0 0)  rotate(0 11 11)"><path  id="Vector" style="stroke:#7C808C; stroke-width:1.2000000476837158; stroke-opacity:1; stroke-dasharray:0 0" transform="translate(2 2)  rotate(0 9 9)" d="M18,6.3C18,1.8 16.2,0 11.7,0L6.3,0C1.8,0 0,1.8 0,6.3L0,11.7C0,16.2 1.8,18 6.3,18L11.7,18C16.2,18 18,16.2 18,11.7L18,6.3Z " /><g opacity="1" transform="translate(5.942692756652832 5.996842381425398)  rotate(0 4.45001220703125 5.05242920067524)"><path  id="Vector" style="stroke:#7C808C; stroke-width:1.2000000476837158; stroke-opacity:1; stroke-dasharray:0 0" transform="translate(0 6.964843752912981)  rotate(0 1.57000732421875 1.57000732421875)" d="M1.57,0C0.7,0 0,0.7 0,1.57C0,2.44 0.7,3.14 1.57,3.14C2.44,3.14 3.14,2.44 3.14,1.57C3.14,0.7 2.44,0 1.57,0Z " /><path  id="Vector" style="stroke:#7C808C; stroke-width:1.2000000476837158; stroke-opacity:1; stroke-dasharray:0 0" transform="translate(3.1500244140625 0)  rotate(0 2.875 4.272427560355416)" d="M5.75,7.48L5.75,1.34C5.75,0.03 4.93,-0.15 4.1,0.08L0.96,0.94C0.39,1.1 0,1.55 0,2.2L0,3.3L0,4.04L0,8.54 " /><path  id="Vector" style="stroke:#7C808C; stroke-width:1.2000000476837158; stroke-opacity:1; stroke-dasharray:0 0" transform="translate(5.760009765625 5.914855959944231)  rotate(0 1.57000732421875 1.57000732421875)" d="M1.57,0C0.7,0 0,0.7 0,1.57C0,2.44 0.7,3.14 1.57,3.14C2.44,3.14 3.14,2.44 3.14,1.57C3.14,0.7 2.44,0 1.57,0Z " /><path  id="Vector" style="stroke:#7C808C; stroke-width:1.2000000476837158; stroke-opacity:1; stroke-dasharray:0 0" transform="translate(3.1400146484375 2.464843752912981)  rotate(0 2.8800048828125 0.785003662109375)" d="M0,1.57L5.76,0 " /></g></g></g></svg>