<svg xmlns="http://www.w3.org/2000/svg" xmlns:xlink="http://www.w3.org/1999/xlink" width="22" height="22" viewBox="0 0 22 22" fill="none"><g opacity="1" transform="translate(0 0)  rotate(0 11 11)"><path id="路径 2" fill-rule="evenodd" style="fill:#54A6F8" transform="translate(2.7497706860303883 2.75)  rotate(0 8.250229626893999 8.25)" opacity="1" d="M16.02 7.08Z M0.48 9.42L1.97 10.9L1.97 12.95C1.97 13.86 2.71 14.6 3.62 14.6L5.67 14.6L7.09 16.02C7.41 16.34 7.83 16.5 8.25 16.5C8.67 16.5 9.09 16.34 9.42 16.02L10.83 14.6L12.95 14.6C13.86 14.6 14.6 13.86 14.6 12.95L14.6 10.83L16.02 9.42C16.66 8.77 16.66 7.73 16.02 7.08L14.6 5.67L14.6 3.62C14.6 2.71 13.86 1.97 12.95 1.97L10.9 1.97L9.42 0.48C9.09 0.16 8.67 0 8.25 0C7.83 0 7.41 0.16 7.09 0.48L5.6 1.97L3.62 1.97C2.71 1.97 1.97 2.71 1.97 3.62L1.97 5.6L0.48 7.08C-0.16 7.73 -0.16 8.77 0.48 9.42Z M11.8904 7.10671Z M11.8904 7.10671C12.1604 6.83671 12.1604 6.39671 11.8904 6.12671L11.8904 6.12671C11.6204 5.85671 11.1804 5.85671 10.9104 6.12671L7.6104 9.43671L6.1804 8.05671C5.9104 7.79671 5.4804 7.79671 5.2104 8.06671L5.2004 8.07671C4.9404 8.34671 4.9504 8.78671 5.2204 9.05671L7.1004 10.8667C7.1904 10.9567 7.3004 11.0167 7.4104 11.0367C7.6604 11.1267 7.9304 11.0667 8.1304 10.8767L11.8904 7.10671Z " /></g></svg>