<svg xmlns="http://www.w3.org/2000/svg" xmlns:xlink="http://www.w3.org/1999/xlink" width="22" height="22" viewBox="0 0 22 22" fill="none"><g opacity="1" transform="translate(0 0)  rotate(0 11 11)"><g opacity="1" transform="translate(0 0)  rotate(0 11 11)"><g opacity="1" transform="translate(3.293789625167845 1.840128540992735)  rotate(0 7.706196188926697 9.159871339797974)"><path  id="Vector" style="stroke:#7C808C; stroke-width:1.5; stroke-opacity:1; stroke-dasharray:0 0" transform="translate(0 2.888542652130127)  rotate(0 7.70618200302124 2.9074065685272217)" d="M0,0L12.67,0C14.19,0 15.41,1.23 15.41,2.76L15.41,5.81 " /><path  id="Vector" style="stroke:#7C808C; stroke-width:1.5; stroke-opacity:1; stroke-dasharray:0 0" transform="translate(0 0)  rotate(0 1.453703284263611 2.9074065685272217)" d="M2.91,0L0,2.91L2.91,5.81 " /><path  id="Vector" style="stroke:#7C808C; stroke-width:1.5; stroke-opacity:1; stroke-dasharray:0 0" transform="translate(0 9.616387367248535)  rotate(0 7.70618200302124 2.9074065685272217)" d="M15.41,5.81L2.75,5.81C1.23,5.81 0,4.58 0,3.05L0,0 " /><path  id="Vector" style="stroke:#7C808C; stroke-width:1.5; stroke-opacity:1; stroke-dasharray:0 0" transform="translate(12.504985809326172 12.504929542541504)  rotate(0 1.453703284263611 2.9074065685272217)" d="M0,5.81L2.91,2.91L0,0 " /></g></g></g></svg>