<svg xmlns="http://www.w3.org/2000/svg" xmlns:xlink="http://www.w3.org/1999/xlink" width="42" height="42" viewBox="0 0 42 42" fill="none"><g opacity="1" transform="translate(0 0)  rotate(0 21 21)"><path id="椭圆 9" fill-rule="evenodd" style="fill:#313745" transform="translate(0 0)  rotate(0 21 21)" opacity="1" d="M21,0C9.4,0 0,9.4 0,21C0,32.6 9.4,42 21,42C32.6,42 42,32.6 42,21C42,9.4 32.6,0 21,0Z " /><g opacity="1" transform="translate(9 9)  rotate(0 12 12)"><g opacity="1" transform="translate(0 0)  rotate(0 12 12)"><path  id="Vector" style="stroke:#E6EAEF; stroke-width:1.5; stroke-opacity:1; stroke-dasharray:0 0" transform="translate(9.32000732421875 11.67999267578125)  rotate(0 2.559999942779541 1.2799997329711914)" d="M0,0L2.56,2.56L5.12,0 " /><path  id="Vector" style="stroke:#E6EAEF; stroke-width:1.5; stroke-opacity:1; stroke-dasharray:0 0" transform="translate(11.8800048828125 4)  rotate(0 0 5.085000038146975)" d="M0,0L0,10.17 " /><path  id="Vector" style="stroke:#E6EAEF; stroke-width:1.5; stroke-opacity:1; stroke-dasharray:0 0" transform="translate(4 12.17999267578125)  rotate(0 8 4)" d="M16,0C16,4.42 13,8 8,8C3,8 0,4.42 0,0 " /></g></g></g></svg>