<svg xmlns="http://www.w3.org/2000/svg" xmlns:xlink="http://www.w3.org/1999/xlink" width="42" height="42" viewBox="0 0 42 42" fill="none"><g opacity="1" transform="translate(0 0)  rotate(0 21 21)"><path id="椭圆 6" fill-rule="evenodd" style="fill:#252C39" transform="translate(0 0)  rotate(0 21 21)" opacity="1" d="M21,0C9.4,0 0,9.4 0,21C0,32.6 9.4,42 21,42C32.6,42 42,32.6 42,21C42,9.4 32.6,0 21,0Z " /><g opacity="1" transform="translate(8.999999999999943 9.000000000000057)  rotate(180 12 12)"><g opacity="1" transform="translate(0 0)  rotate(0 12 12)"><path  id="Vector" style="stroke:#E6EAEF; stroke-width:1.5; stroke-opacity:1; stroke-dasharray:0 0" transform="translate(7.902496337890625 4.079986572265625)  rotate(0 3.548750162124634 7.920000076293945)" d="M7.1,15.84L0.58,9.32C-0.19,8.55 -0.19,7.29 0.58,6.52L7.1,0 " /></g></g></g></svg>