<svg xmlns="http://www.w3.org/2000/svg" xmlns:xlink="http://www.w3.org/1999/xlink" width="22" height="22" viewBox="0 0 22 22" fill="none"><g opacity="1" transform="translate(0 0)  rotate(0 11 11)"><g opacity="1" transform="translate(0 0)  rotate(0 11 11)"><path  id="Vector" style="stroke:#E6EAEF; stroke-width:1.2000000476837158; stroke-opacity:1; stroke-dasharray:0 0" transform="translate(2 2.0174102910302616)  rotate(0 9 8.986291879021)" d="M1.47,4.52C0.66,5.15 0,6.49 0,7.51L0,14.18C0,16.26 1.7,17.97 3.79,17.97L14.21,17.97C16.3,17.97 18,16.26 18,14.18L18,7.63C18,6.54 17.27,5.15 16.38,4.53L10.82,0.63C9.56,-0.25 7.53,-0.2 6.32,0.74L1.47,4.52Z " /><path  id="Vector" style="stroke:#E6EAEF; stroke-width:1.2000000476837158; stroke-opacity:1; stroke-dasharray:0 0" transform="translate(11 13.562385559082031)  rotate(0 0 1.5)" d="M0,3L0,0 " /></g></g></svg>