<svg xmlns="http://www.w3.org/2000/svg" xmlns:xlink="http://www.w3.org/1999/xlink" width="21.99999237060547" height="21.99999237060547" viewBox="0 0 21.99999237060547 21.99999237060547" fill="none"><g opacity="1" transform="translate(0 0)  rotate(0 10.999996185302734 10.999996185302734)"><g opacity="1" transform="translate(0 0)  rotate(0 10.999996185302734 10.999996185302734)"><path  id="Vector" style="stroke:#7C808C; stroke-width:1.2999999523162842; stroke-opacity:1; stroke-dasharray:0 0" transform="translate(1.8337879180908203 2.842376947402954)  rotate(0 9.166208267211916 8.157624721527101)" d="M18.33,5.12C18.33,2.29 16.05,0 13.24,0C11.58,0 10.09,0.81 9.17,2.05C8.24,0.81 6.76,0 5.1,0C2.28,0 0,2.29 0,5.12C0,11.54 5.94,15.33 8.6,16.23C8.91,16.34 9.42,16.34 9.73,16.23C12.39,15.33 18.33,11.54 18.33,5.12Z " /></g></g></svg>