<svg xmlns="http://www.w3.org/2000/svg" xmlns:xlink="http://www.w3.org/1999/xlink" width="22" height="22" viewBox="0 0 22 22" fill="none"><g opacity="1" transform="translate(0 0)  rotate(0 11 11)"><g opacity="1" transform="translate(0 0)  rotate(0 11 11)"><g opacity="1" transform="translate(1.8333333730697632 1.8333333730697632)  rotate(0 9.166666746139526 9.16666674613953)"><path  id="Vector" style="stroke:#7C808C; stroke-width:1; stroke-opacity:1; stroke-dasharray:0 0" transform="translate(0.5316543579101562 2.0441486835479736)  rotate(0 1.439173460006714 2.035001277923584)" d="M0,4.07C0.57,2.46 1.58,1.05 2.88,0 " /><path  id="Vector" style="stroke:#7C808C; stroke-width:1; stroke-opacity:1; stroke-dasharray:0 0" transform="translate(0 9.166666984558105)  rotate(0 0.2658271789550781 1.526257872581482)" d="M0,0C0,1.07 0.19,2.1 0.53,3.05 " /><path  id="Vector" style="stroke:#7C808C; stroke-width:1; stroke-opacity:1; stroke-dasharray:0 0" transform="translate(6.4991631507873535 7.553324222564697)  rotate(0 5.91708517074585 5.39000463485718)" d="M0,10.39C0.84,10.64 1.74,10.78 2.67,10.78C7.73,10.78 11.83,6.67 11.83,1.61C11.83,1.06 11.78,0.52 11.69,0 " /><path  id="Vector" style="stroke:#7C808C; stroke-width:1; stroke-opacity:1; stroke-dasharray:0 0" transform="translate(2.1999943256378174 15.115824699401855)  rotate(0 0.605003356933594 0.577504515647888)" d="M1.21,1.16C0.78,0.81 0.37,0.42 0,0 " /><path  id="Vector" style="stroke:#7C808C; stroke-width:1; stroke-opacity:1; stroke-dasharray:0 0" transform="translate(6.4991631507873535 0)  rotate(0 5.110414028167725 1.989179015159607)" d="M10.22,3.98C8.57,1.58 5.8,0 2.67,0C1.74,0 0.84,0.14 0,0.39 " /></g><g opacity="1" transform="translate(6.416666507720947 6.312713984400477)  rotate(0 4.125 4.685719547793048)"><path  id="Vector" style="stroke:#7C808C; stroke-width:1; stroke-opacity:1; stroke-dasharray:0 0" transform="translate(0 6.456445809453283)  rotate(0 1.457496643066406 1.457496643066406)" d="M1.46,0C0.65,0 0,0.65 0,1.46C0,2.26 0.65,2.91 1.46,2.91C2.26,2.91 2.91,2.26 2.91,1.46C2.91,0.65 2.26,0 1.46,0Z " /><path  id="Vector" style="stroke:#7C808C; stroke-width:1; stroke-opacity:1; stroke-dasharray:0 0" transform="translate(2.9058456420898438 0)  rotate(0 2.672077178955078 3.9569995285319863)" d="M5.34,6.94L5.34,1.25C5.34,0.04 4.58,-0.13 3.81,0.08L0.9,0.87C0.37,1.02 0,1.43 0,2.05L0,3.06L0,3.74L0,7.91 " /><path  id="Vector" style="stroke:#7C808C; stroke-width:1; stroke-opacity:1; stroke-dasharray:0 0" transform="translate(5.3350067138671875 5.484781380742345)  rotate(0 1.457496643066406 1.457496643066406)" d="M1.46,0C0.65,0 0,0.65 0,1.46C0,2.26 0.65,2.91 1.46,2.91C2.26,2.91 2.91,2.26 2.91,1.46C2.91,0.65 2.26,0 1.46,0Z " /><path  id="Vector" style="stroke:#7C808C; stroke-width:1; stroke-opacity:1; stroke-dasharray:0 0" transform="translate(2.9149932861328125 2.0931037627156117)  rotate(0 2.667503356933594 0.7287623286247255)" d="M0,1.46L5.34,0 " /></g></g></g></svg>