<svg xmlns="http://www.w3.org/2000/svg" xmlns:xlink="http://www.w3.org/1999/xlink" width="42" height="42" viewBox="0 0 42 42" fill="none"><g opacity="1" transform="translate(0 0)  rotate(0 21 21)"><path id="椭圆 10" fill-rule="evenodd" style="fill:#313745" transform="translate(0 0)  rotate(0 21 21)" opacity="1" d="M21,0C9.4,0 0,9.4 0,21C0,32.6 9.4,42 21,42C32.6,42 42,32.6 42,21C42,9.4 32.6,0 21,0Z " /><g opacity="1" transform="translate(10.00152587890625 10.00152587890625)  rotate(0 10.99847412109375 10.99847412109375)"><g opacity="1" transform="translate(0 0)  rotate(0 10.99847412109375 10.99847412109375)"><path  id="Vector" style="stroke:#E6EAEF; stroke-width:1.2999999523162842; stroke-opacity:1; stroke-dasharray:0 0" transform="translate(12.373283386230469 1.8330789804458618)  rotate(0 3.8952927589416504 3.8907692970041996)" d="M7.79,1.81C7.79,0.52 7.2,0 5.75,0L2.04,0C0.59,0 0,0.52 0,1.81L0,5.97C0,7.27 0.59,7.78 2.04,7.78L5.75,7.78C7.2,7.79 7.79,7.27 7.79,5.98L7.79,1.81Z " /><path  id="Vector" style="stroke:#E6EAEF; stroke-width:1.2999999523162842; stroke-opacity:1; stroke-dasharray:0 0" transform="translate(12.373283386230469 12.373283386230469)  rotate(0 3.8952927589416504 3.8952927589416504)" d="M7.79,2.04C7.79,0.59 7.2,0 5.75,0L2.04,0C0.59,0 0,0.59 0,2.04L0,5.75C0,7.2 0.59,7.79 2.04,7.79L5.75,7.79C7.2,7.79 7.79,7.2 7.79,5.75L7.79,2.04Z " /><path  id="Vector" style="stroke:#E6EAEF; stroke-width:1.2999999523162842; stroke-opacity:1; stroke-dasharray:0 0" transform="translate(1.8330789804458618 1.8330789804458618)  rotate(0 3.8952927589416504 3.8907692970041996)" d="M7.79,1.81C7.79,0.52 7.2,0 5.75,0L2.04,0C0.59,0 0,0.52 0,1.81L0,5.97C0,7.27 0.59,7.78 2.04,7.78L5.75,7.78C7.2,7.79 7.79,7.27 7.79,5.98L7.79,1.81Z " /><path  id="Vector" style="stroke:#E6EAEF; stroke-width:1.2999999523162842; stroke-opacity:1; stroke-dasharray:0 0" transform="translate(1.8330789804458618 12.373283386230469)  rotate(0 3.8952927589416504 3.8952927589416504)" d="M7.79,2.04C7.79,0.59 7.2,0 5.75,0L2.04,0C0.59,0 0,0.59 0,2.04L0,5.75C0,7.2 0.59,7.79 2.04,7.79L5.75,7.79C7.2,7.79 7.79,7.2 7.79,5.75L7.79,2.04Z " /></g></g></g></svg>