<svg xmlns="http://www.w3.org/2000/svg" xmlns:xlink="http://www.w3.org/1999/xlink" width="25" height="26" viewBox="0 0 25 26" fill="none"><g opacity="1" transform="translate(0 0)  rotate(0 12.5 13)"><path id="矩形 1139" fill-rule="evenodd" style="fill:#E6EAEF" transform="translate(0 0)  rotate(0 5.5 13)" opacity="1" d="M2,26L9,26C10.1,26 11,25.1 11,24L11,2C11,0.9 10.1,0 9,0L2,0C0.9,0 0,0.9 0,2L0,24C0,25.1 0.9,26 2,26Z " /><path id="矩形 1140" fill-rule="evenodd" style="fill:#E6EAEF" transform="translate(14 0)  rotate(0 5.5 13)" opacity="1" d="M2,26L9,26C10.1,26 11,25.1 11,24L11,2C11,0.9 10.1,0 9,0L2,0C0.9,0 0,0.9 0,2L0,24C0,25.1 0.9,26 2,26Z " /></g></svg>