<svg xmlns="http://www.w3.org/2000/svg" xmlns:xlink="http://www.w3.org/1999/xlink" width="20" height="22" viewBox="0 0 20 22" fill="none"><g opacity="1" transform="translate(0 0)  rotate(0 10 11)"><path id="路径 17" fill-rule="evenodd" style="fill:#E6EAEF" transform="translate(1.7017617225646973 3.4249839782714844)  rotate(0 7.00567626953125 7.501250267028809)" opacity="1" d="M0 13.3389Z M0.16 13.7189C0.26 13.8189 0.39 13.8689 0.53 13.8689L1.59 13.8689C1.73 13.8689 1.86 13.8189 1.96 13.7189C2.06 13.6189 2.12 13.4789 2.12 13.3389L2.12 1.68886C2.12 1.54886 2.06 1.40886 1.96 1.31886C1.86 1.21886 1.73 1.15886 1.59 1.15886L0.53 1.15886C0.39 1.15886 0.25 1.21886 0.16 1.31886C0.06 1.41886 0 1.54886 0 1.68886L0 13.3389C0 13.4789 0.06 13.6189 0.16 13.7189Z M12.4597 14.86Z M13.4197 14.86L13.5697 14.79C13.8297 14.63 13.9897 14.36 14.0097 14.06L14.0097 0.99C14.0097 0.67 13.8397 0.38 13.5697 0.21L13.4197 0.14C13.1297 -0.05 12.7497 -0.05 12.4597 0.14L3.57971 6.38C3.33971 6.54 3.19971 6.82 3.19971 7.11L3.19971 7.86C3.19971 8.15 3.34971 8.42 3.57971 8.59L12.4597 14.86C12.7497 15.05 13.1297 15.05 13.4197 14.86Z " /></g></svg>