<svg xmlns="http://www.w3.org/2000/svg" xmlns:xlink="http://www.w3.org/1999/xlink" width="22" height="22" viewBox="0 0 22 22" fill="none"><g opacity="1" transform="translate(0 0)  rotate(0 11 11)"><g opacity="1" transform="translate(0 0)  rotate(0 11 11)"><path  id="Vector" style="stroke:#7C808C; stroke-width:1.2000000476837158; stroke-opacity:1; stroke-dasharray:0 0" transform="translate(5.482158660888672 1.8392804861068726)  rotate(0 5.51784133911133 7.81694221496582)" d="M11.04,10.12L11.04,5.52C11.04,2.47 8.56,0 5.52,0C2.47,0 0,2.47 0,5.52L0,10.12C0,13.16 2.47,15.63 5.52,15.63C8.56,15.63 11.04,13.16 11.04,10.12Z " /><path  id="Vector" style="stroke:#7C808C; stroke-width:1.2000000476837158; stroke-opacity:1; stroke-dasharray:0 0" transform="translate(2.758920669555664 10.044676780700684)  rotate(0 8.241079330444334 5.058021545410155)" d="M0,0L0,1.84C0,6.41 3.69,10.12 8.24,10.12C12.79,10.12 16.48,6.41 16.48,1.84L16.48,0 " /><path  id="Vector" style="stroke:#7C808C; stroke-width:1.2000000476837158; stroke-opacity:1; stroke-dasharray:0 0" transform="translate(8.342780113220215 6.409354202449322)  rotate(0 2.529010772705078 0.2241622991859913)" d="M0,0.45C1.64,-0.15 3.42,-0.15 5.06,0.45 " /><path  id="Vector" style="stroke:#7C808C; stroke-width:1.2000000476837158; stroke-opacity:1; stroke-dasharray:0 0" transform="translate(9.18878173828125 9.379473680630326)  rotate(0 1.6875399351119995 0.11380548309534788)" d="M0,0.23C1.1,-0.08 2.27,-0.08 3.38,0.23 " /></g></g></svg>