<svg xmlns="http://www.w3.org/2000/svg" xmlns:xlink="http://www.w3.org/1999/xlink" width="22" height="22" viewBox="0 0 22 22" fill="none"><g opacity="1" transform="translate(0 0)  rotate(0 11 11)"><g opacity="1" transform="translate(0 0)  rotate(0 11 11)"><path  id="Vector" style="stroke:#7C808C; stroke-width:1.5; stroke-opacity:1; stroke-dasharray:0 0" transform="translate(2.75 5.509007930743502)  rotate(0 8.25458812713623 5.490898132330276)" d="M0,10.97L2.34,10.98C3.17,10.98 3.95,10.57 4.41,9.88L10.27,1.1C10.73,0.41 11.5,-0.01 12.34,0L16.51,0.02 " /><path  id="Vector" style="stroke:#7C808C; stroke-width:1.5; stroke-opacity:1; stroke-dasharray:0 0" transform="translate(17.41666603088379 16.48164939880371)  rotate(0 0.9166666865348815 0.9166666865348815)" d="M0,1.83L1.83,0 " /><path  id="Vector" style="stroke:#7C808C; stroke-width:1.5; stroke-opacity:1; stroke-dasharray:0 0" transform="translate(2.75 5.499832153315586)  rotate(0 2.69959020614624 1.2009111642861159)" d="M5.4,2.4L4.41,1.03C3.94,0.38 3.19,-0.01 2.39,0L0,0.01 " /><path  id="Vector" style="stroke:#7C808C; stroke-width:1.5; stroke-opacity:1; stroke-dasharray:0 0" transform="translate(11.889167785644531 14.09833812713623)  rotate(0 3.6850039958953853 1.200831174850464)" d="M0,0L1.12,1.44C1.59,2.04 2.32,2.4 3.09,2.4L7.37,2.38 " /><path  id="Vector" style="stroke:#7C808C; stroke-width:1.5; stroke-opacity:1; stroke-dasharray:0 0" transform="translate(17.41666603088379 3.6850178241729736)  rotate(0 0.9166666865348815 0.9166666865348815)" d="M1.83,1.83L0,0 " /></g></g></svg>