<svg xmlns="http://www.w3.org/2000/svg" xmlns:xlink="http://www.w3.org/1999/xlink" width="42" height="42" viewBox="0 0 42 42" fill="none"><g opacity="1" transform="translate(0 0)  rotate(0 21 21)"><path id="椭圆 7" fill-rule="evenodd" style="fill:#252D3A" transform="translate(0 0)  rotate(0 21 21)" opacity="1" d="M21,0C9.4,0 0,9.4 0,21C0,32.6 9.4,42 21,42C32.6,42 42,32.6 42,21C42,9.4 32.6,0 21,0Z " /><g opacity="1" transform="translate(9 9)  rotate(0 12 12)"><g opacity="1" transform="translate(0 0)  rotate(0 12 12)"><path  id="Vector" style="stroke:#E6EAEF; stroke-width:1.5; stroke-opacity:1; stroke-dasharray:0 0" transform="translate(3.9740295470464844 2.910003662109375)  rotate(0 8.021241778974675 8.435000658035278)" d="M2.05,8.89C2.05,9.5 1.79,10.43 1.48,10.95L0.33,12.86C-0.38,14.04 0.11,15.35 1.41,15.79C5.72,17.23 10.37,17.23 14.68,15.79C15.89,15.39 16.42,13.96 15.76,12.86L14.61,10.95C14.31,10.43 14.05,9.5 14.05,8.89L14.05,6C14.05,2.7 11.35,0 8.05,0C4.74,0 2.05,2.69 2.05,6L2.05,8.89Z " /><path  id="Vector" style="stroke:#E6EAEF; stroke-width:1.5; stroke-opacity:1; stroke-dasharray:0 0" transform="translate(10.169998168945312 1.94000244140625)  rotate(0 1.8499999046325686 0.6299999952316285)" d="M1.85,0C1.01,0 0.29,0.52 0,1.26C0.86,1.01 1.78,0.94 2.74,1.06C3.07,1.1 3.39,1.17 3.7,1.26C3.41,0.52 2.69,0 1.85,0Z " /><path  id="Vector" style="stroke:#E6EAEF; stroke-width:1.5; stroke-opacity:1; stroke-dasharray:0 0" transform="translate(9.020004272460938 19.05999755859375)  rotate(0 3 1.5)" d="M6,0C6,1.65 4.65,3 3,3C2.18,3 1.42,2.66 0.88,2.12C0.34,1.58 0,0.82 0,0 " /></g></g></g></svg>