<svg xmlns="http://www.w3.org/2000/svg" xmlns:xlink="http://www.w3.org/1999/xlink" width="22" height="22" viewBox="0 0 22 22" fill="none"><g opacity="1" transform="translate(0 0)  rotate(0 11 11)"><g opacity="1" transform="translate(0 0)  rotate(0 11 11)"><path  id="Vector" style="stroke:#7C808C; stroke-width:1.2000000476837158; stroke-opacity:1; stroke-dasharray:0 0" transform="translate(5.8599853515625 14.969970703125)  rotate(0 5.13999938964844 2.5150146484375)" d="M5.14,0C2.42,0 0.18,2.05 0,4.65C0.74,4.91 1.61,5.03 2.63,5.03L7.65,5.03C8.67,5.03 9.54,4.91 10.28,4.65C10.1,2.05 7.86,0 5.14,0Z " /><path  id="Vector" style="stroke:#7C808C; stroke-width:1.2000000476837158; stroke-opacity:1; stroke-dasharray:0 0" transform="translate(2 2)  rotate(0 9 8.80999755859375)" d="M9 13.44C11.92 13.44 14.33 15.29 14.53 17.62C16.97 16.93 18 15.07 18 11.67L18 6.29C18 1.8 16.2 0 11.7 0L6.3 0C1.8 0 0 1.8 0 6.29L0 11.67C0 15.07 1.03 16.93 3.47 17.62C3.67 15.29 6.07 13.44 9 13.44Z M12.218 7.71032C12.218 5.93032 10.778 4.49032 8.998 4.49032C7.218 4.49032 5.778 5.93032 5.778 7.71032C5.778 9.48032 7.218 10.9303 8.998 10.9303C10.778 10.9303 12.218 9.48032 12.218 7.71032Z " /><path  id="Vector" style="stroke:#7C808C; stroke-width:0.6000000238418579; stroke-opacity:1; stroke-dasharray:0 0" transform="translate(7.419984817504883 6.168152809143066)  rotate(0 3.5800018310546875 3.584991455078125)" d="M3.58,0C1.6,0 0,1.6 0,3.58C0,5.56 1.6,7.17 3.58,7.17C5.56,7.17 7.16,5.56 7.16,3.58C7.16,1.6 5.56,0 3.58,0Z " /></g></g></svg>