<svg xmlns="http://www.w3.org/2000/svg" xmlns:xlink="http://www.w3.org/1999/xlink" width="22" height="22" viewBox="0 0 22 22" fill="none"><defs><linearGradient id="linear_0" x1="79.57473993301392%" y1="64.91721272468567%" x2="10.980811715126038%" y2="43.02820265293121%" gradientUnits="objectBoundingBox"><stop offset="0" stop-color="#F0973C" stop-opacity="1" /><stop offset="1" stop-color="#F6C880" stop-opacity="1" /></linearGradient></defs><g opacity="1" transform="translate(0 0)  rotate(0 11 11)"><path id="路径 19" fill-rule="evenodd" fill="url(#linear_0)" transform="translate(0.6634426089003682 1.935699462890625)  rotate(0 10.3364210142754 9.06429958343506)" opacity="1" d="M17.0933 16.0696C17.0933 15.9996 17.0233 15.9196 16.8833 15.9196L3.72329 15.9196C3.65329 15.9196 3.58329 15.9996 3.58329 16.0696L3.58329 17.9796C3.58329 18.0496 3.65329 18.1296 3.72329 18.1296L16.9533 18.1296C17.0233 18.1296 17.0933 18.0496 17.0933 17.9796L17.0933 16.0696Z M16.95 15.46L18.95 7.85L19.02 7.85C19.91 7.85 20.67 7.01 20.67 6.02C20.67 4.95 19.85 4.11 18.88 4.11C18.47 4.11 18.05 4.27 17.78 4.57C17.37 5.18 17.23 6.02 17.43 6.7C17.5 6.78 17.43 6.86 17.37 6.93L14.4 8.07C14.33 8.15 14.26 8.07 14.2 8L11.44 3.35C11.37 3.28 11.37 3.2 11.44 3.12C11.78 2.82 11.99 2.29 11.99 1.83C11.99 0.84 11.3 0.08 10.41 0L10.34 0C9.44 0.08 8.75 0.84 8.75 1.83C8.75 2.29 8.96 2.82 9.23 3.12C9.3 3.2 9.3 3.28 9.23 3.35L6.41 8C6.34 8.07 6.27 8.07 6.2 8.07L3.31 6.86C3.24 6.86 3.17 6.7 3.24 6.63C3.45 5.94 3.31 5.18 2.89 4.65L2.83 4.57C2.14 3.88 1.03 3.96 0.41 4.8C0.14 5.1 0 5.56 0 6.02C0 7.01 0.76 7.85 1.65 7.85L1.72 7.85L3.72 15.46C3.72 15.54 3.79 15.61 3.86 15.61L16.81 15.61C16.88 15.61 16.95 15.54 16.95 15.46Z M11.0924 14.3175C11.0924 14.3175 11.0224 14.3975 11.0924 14.3175Z M9.3724 9.59749L8.1324 9.59749C8.0624 9.59749 8.0624 9.59749 8.0624 9.67749L9.5824 14.3175C9.5824 14.3975 9.6424 14.3975 9.6424 14.3975L11.0924 14.3175L12.6124 9.67749C12.6124 9.67749 12.6124 9.59749 12.5424 9.59749L11.3024 9.59749L11.2324 9.67749L10.4024 12.2675C10.4024 12.3375 10.2724 12.3375 10.2724 12.2675L9.4424 9.67749C9.4424 9.59749 9.3724 9.59749 9.3724 9.59749Z " /></g></svg>